<?xml version="1.0" encoding="UTF-8" standalone="no"?>
<!-- Created with Inkscape (http://www.inkscape.org/) -->

<svg
   width="210mm"
   height="210mm"
   viewBox="0 0 210 210"
   version="1.1"
   id="svg1041"
   inkscape:export-filename="logosssss1.pdf"
   inkscape:export-xdpi="96"
   inkscape:export-ydpi="96"
   inkscape:version="1.2.2 (732a01da63, 2022-12-09)"
   sodipodi:docname="drawing.svg"
   xmlns:inkscape="http://www.inkscape.org/namespaces/inkscape"
   xmlns:sodipodi="http://sodipodi.sourceforge.net/DTD/sodipodi-0.dtd"
   xmlns="http://www.w3.org/2000/svg"
   xmlns:svg="http://www.w3.org/2000/svg">
  <sodipodi:namedview
     id="namedview1043"
     pagecolor="#ffffff"
     bordercolor="#000000"
     borderopacity="0.25"
     inkscape:showpageshadow="2"
     inkscape:pageopacity="0.0"
     inkscape:pagecheckerboard="0"
     inkscape:deskcolor="#d1d1d1"
     inkscape:document-units="mm"
     showgrid="false"
     inkscape:zoom="0.69130191"
     inkscape:cx="393.46051"
     inkscape:cy="360.18995"
     inkscape:window-width="1920"
     inkscape:window-height="974"
     inkscape:window-x="-11"
     inkscape:window-y="-11"
     inkscape:window-maximized="1"
     inkscape:current-layer="layer1" />
  <defs
     id="defs1038" />
  <g
     inkscape:label="Layer 1"
     inkscape:groupmode="layer"
     id="layer1">
    <path
       style="fill:#000000;fill-opacity:1;stroke-width:0.159071;stroke-linejoin:round"
       d="m 60.600212,154.45074 v -10.70406 l -2.367369,-1.53482 c -2.987624,-1.93689 -7.430146,-6.28965 -9.298052,-9.11016 -0.675744,-1.0204 -1.458599,-2.00596 -1.739743,-2.19014 -0.320572,-0.21009 -1.505793,-0.4374 -3.180463,-0.61005 -5.140145,-0.5299 -8.395397,-1.48289 -11.042158,-3.2327 -3.588415,-2.37234 -5.590002,-5.56457 -6.674623,-10.6447 -0.352496,-1.6508 -0.471769,-3.14041 -0.567775,-7.08794 l -0.121619,-4.9979 h 5.080063 5.079963 v 4.8521 c 0,2.87515 0.09584,5.23232 0.234975,5.78529 0.30636,1.2164 1.576913,2.64725 2.965218,3.33907 0.934283,0.46558 1.367913,0.54375 3.016542,0.54375 h 1.925344 l 0.136821,-2.68308 c 0.07535,-1.4757 0.137482,-4.90847 0.138143,-7.62838 7.93e-4,-2.7199 0.06279,-6.85563 0.138804,-9.190504 l 0.137482,-4.245212 1.808451,-0.13431 c 2.597718,-0.192904 4.018113,-0.497863 4.018113,-0.86265 0,-0.166928 -1.277262,-1.618653 -2.838245,-3.226083 -1.561017,-1.60742 -2.934185,-3.174848 -3.051343,-3.483165 -0.235966,-0.620838 -0.285539,-3.732943 -0.08295,-5.210793 l 0.129881,-0.948474 2.454584,-0.101096 c 2.503496,-0.103111 3.388141,-0.34539 3.388141,-0.927981 0,-0.179982 -1.123784,-1.478722 -2.497316,-2.886115 -1.373499,-1.407394 -2.604592,-2.76574 -2.735762,-3.018548 -0.332799,-0.641857 -0.290827,-3.256148 0.08031,-5.009031 1.20267,-5.67768 5.118464,-12.244512 9.542446,-16.002661 1.563198,-1.327941 6.42352,-3.830485 9.550676,-4.917618 1.810368,-0.629344 1.947651,-0.643955 8.417505,-0.895726 9.116517,-0.354763 67.299494,-0.353087 76.232124,0.0022 l 6.52353,0.259465 2.1356,0.714401 c 4.59028,1.535589 7.60315,3.363605 10.71134,6.498841 2.19406,2.21328 4.53373,5.453058 5.90647,8.178941 1.54446,3.066862 2.4374,6.528849 3.05448,11.841283 0.17516,1.509864 0.26803,14.544533 0.32851,46.138486 l 0.0839,44.03412 H 164.6707 151.7191 v -9.04882 -9.04883 h -14.81469 -14.81462 l -0.15202,2.63721 c -0.084,1.45048 -0.0823,5.417 0,8.81452 l 0.15434,6.1773 -4.0745,0.1234 c -2.24092,0.0678 -7.82517,0.17358 -12.40944,0.23495 l -8.334979,0.11157 -0.154998,-23.30663 c -0.0856,-12.81864 -0.172844,-23.32538 -0.194326,-23.34833 -0.02313,-0.0228 -3.350663,-0.14564 -7.397957,-0.27265 -12.13253,-0.38076 -12.935941,-0.51341 -14.028064,-2.3161 -0.800536,-1.32129 -1.008114,-2.97553 -1.009964,-8.04924 v -4.36659 h -5.471424 -5.471357 v 5.31356 c 0,5.45564 0.21118,8.347 0.73153,10.10159 0.716493,2.41601 3.409754,6.44218 5.772826,8.63001 2.36076,2.1856 6.066662,3.18877 11.820981,3.19983 l 3.491087,0.007 0.139134,9.76731 c 0.07601,5.37202 0.138804,13.1135 0.138804,17.20329 l 9.9e-5,7.43597 H 73.118485 60.597436 Z m 31.587104,-47.49613 c 0.784441,-0.40123 1.785648,-1.61029 2.0852,-2.51803 0.31297,-0.94819 0.173175,-2.42946 -0.296446,-3.14662 l -0.346613,-0.52913 h -3.478165 -3.478131 l -0.326851,0.78237 c -0.461424,1.10421 -0.298428,2.96543 0.341359,3.89917 1.24299,1.81401 3.627742,2.46973 5.499779,1.51224 z m 8.974774,-50.951665 c -0.20259,-0.05294 -0.5339,-0.05294 -0.73652,0 -0.20259,0.05291 -0.0367,0.09624 0.36832,0.09624 0.40501,0 0.57082,-0.04329 0.3682,-0.09624 z"
       id="path2590" />
    <rect
       style="fill:#000000;fill-rule:evenodd;stroke-width:0.264583"
       id="rect3506"
       width="30.581457"
       height="9.3368168"
       x="77.265541"
       y="94.180061" />
  </g>
</svg>
